<?xml version="1.0" encoding="UTF-8" standalone="no"?>
<!DOCTYPE svg PUBLIC "-//W3C//DTD SVG 1.1//EN"
 "http://www.w3.org/Graphics/SVG/1.1/DTD/svg11.dtd">
<!-- Generated by graphviz version 15.0.0 (20260523.1842)
 -->
<!-- Title: route_components Pages: 1 -->
<svg width="1073pt" height="340pt"
 viewBox="0.00 0.00 1073.00 340.00" xmlns="http://www.w3.org/2000/svg" xmlns:xlink="http://www.w3.org/1999/xlink">
<g id="graph0" class="graph" transform="scale(1 1) rotate(0) translate(4 335.75)">
<title>route_components</title>
<polygon fill="white" stroke="none" points="-4,4 -4,-335.75 1068.96,-335.75 1068.96,4 -4,4"/>
<text xml:space="preserve" text-anchor="middle" x="532.48" y="-308.75" font-family="Helvetica,sans-Serif" font-size="20.00">demo&#45;app — app → route → page → component</text>
<g id="clust1" class="cluster">
<title>cluster_legend</title>
<polygon fill="none" stroke="#bbbbbb" stroke-dasharray="5,2" points="8,-179 8,-291 1056.96,-291 1056.96,-179 8,-179"/>
<text xml:space="preserve" text-anchor="middle" x="532.48" y="-275.6" font-family="Helvetica,sans-Serif" font-size="12.00">legend</text>
</g>
<!-- app -->
<g id="node1" class="node">
<title>app</title>
<ellipse fill="#ffe08a" stroke="#b8860b" cx="53.52" cy="-72" rx="38.94" ry="38.94"/>
<ellipse fill="none" stroke="#b8860b" cx="53.52" cy="-72" rx="42.94" ry="42.94"/>
<text xml:space="preserve" text-anchor="middle" x="53.52" y="-67.55" font-family="Helvetica,sans-Serif" font-size="11.00">demo&#45;app</text>
</g>
<!-- r0 -->
<g id="node2" class="node">
<title>r0</title>
<polygon fill="#fff7e6" stroke="#d39e00" points="209.96,-144 145.96,-144 145.96,-108 215.96,-108 215.96,-138 209.96,-144"/>
<polyline fill="none" stroke="#d39e00" points="209.96,-144 209.96,-138"/>
<polyline fill="none" stroke="#d39e00" points="215.96,-138 209.96,-138"/>
<text xml:space="preserve" text-anchor="middle" x="180.96" y="-121.55" font-family="Helvetica,sans-Serif" font-size="11.00">/dashboard</text>
</g>
<!-- app&#45;&gt;r0 -->
<g id="edge1" class="edge">
<title>app&#45;&gt;r0</title>
<path fill="none" stroke="#bbbbbb" d="M93.53,-88.79C107.6,-94.85 123.55,-101.72 137.88,-107.88"/>
<polygon fill="#bbbbbb" stroke="#bbbbbb" points="136.87,-110.11 144.26,-110.63 138.8,-105.61 136.87,-110.11"/>
</g>
<!-- r1 -->
<g id="node3" class="node">
<title>r1</title>
<polygon fill="#fff7e6" stroke="#d39e00" points="201.96,-90 153.96,-90 153.96,-54 207.96,-54 207.96,-84 201.96,-90"/>
<polyline fill="none" stroke="#d39e00" points="201.96,-90 201.96,-84"/>
<polyline fill="none" stroke="#d39e00" points="207.96,-84 201.96,-84"/>
<text xml:space="preserve" text-anchor="middle" x="180.96" y="-67.55" font-family="Helvetica,sans-Serif" font-size="11.00">/orders</text>
</g>
<!-- app&#45;&gt;r1 -->
<g id="edge2" class="edge">
<title>app&#45;&gt;r1</title>
<path fill="none" stroke="#bbbbbb" d="M96.64,-72C112.35,-72 130,-72 144.99,-72"/>
<polygon fill="#bbbbbb" stroke="#bbbbbb" points="144.97,-74.45 151.97,-72 144.97,-69.55 144.97,-74.45"/>
</g>
<!-- r2 -->
<g id="node4" class="node">
<title>r2</title>
<polygon fill="#fff7e6" stroke="#d39e00" points="202.84,-36 153.09,-36 153.09,0 208.84,0 208.84,-30 202.84,-36"/>
<polyline fill="none" stroke="#d39e00" points="202.84,-36 202.84,-30"/>
<polyline fill="none" stroke="#d39e00" points="208.84,-30 202.84,-30"/>
<text xml:space="preserve" text-anchor="middle" x="180.96" y="-13.55" font-family="Helvetica,sans-Serif" font-size="11.00">/settings</text>
</g>
<!-- app&#45;&gt;r2 -->
<g id="edge3" class="edge">
<title>app&#45;&gt;r2</title>
<path fill="none" stroke="#bbbbbb" d="M93.53,-55.21C110.09,-48.08 129.24,-39.83 145.3,-32.92"/>
<polygon fill="#bbbbbb" stroke="#bbbbbb" points="146.06,-35.26 151.52,-30.24 144.12,-30.76 146.06,-35.26"/>
</g>
<!-- C_DashboardPageComponent -->
<g id="node5" class="node">
<title>C_DashboardPageComponent</title>
<path fill="#d6f5dd" stroke="#1a7f37" d="M369.96,-144C369.96,-144 277.46,-144 277.46,-144 271.46,-144 265.46,-138 265.46,-132 265.46,-132 265.46,-120 265.46,-120 265.46,-114 271.46,-108 277.46,-108 277.46,-108 369.96,-108 369.96,-108 375.96,-108 381.96,-114 381.96,-120 381.96,-120 381.96,-132 381.96,-132 381.96,-138 375.96,-144 369.96,-144"/>
<text xml:space="preserve" text-anchor="middle" x="323.71" y="-121.55" font-family="Helvetica,sans-Serif" font-size="11.00">app&#45;dashboard&#45;page</text>
</g>
<!-- r0&#45;&gt;C_DashboardPageComponent -->
<g id="edge4" class="edge">
<title>r0&#45;&gt;C_DashboardPageComponent</title>
<path fill="none" stroke="#1a7f37" stroke-width="1.4" d="M216.39,-126C228.41,-126 242.34,-126 256.08,-126"/>
<polygon fill="#1a7f37" stroke="#1a7f37" stroke-width="1.4" points="255.93,-128.45 262.93,-126 255.93,-123.55 255.93,-128.45"/>
</g>
<!-- C_OrderListPageComponent -->
<g id="node8" class="node">
<title>C_OrderListPageComponent</title>
<path fill="#d6f5dd" stroke="#1a7f37" d="M365.46,-90C365.46,-90 281.96,-90 281.96,-90 275.96,-90 269.96,-84 269.96,-78 269.96,-78 269.96,-66 269.96,-66 269.96,-60 275.96,-54 281.96,-54 281.96,-54 365.46,-54 365.46,-54 371.46,-54 377.46,-60 377.46,-66 377.46,-66 377.46,-78 377.46,-78 377.46,-84 371.46,-90 365.46,-90"/>
<text xml:space="preserve" text-anchor="middle" x="323.71" y="-67.55" font-family="Helvetica,sans-Serif" font-size="11.00">app&#45;order&#45;list&#45;page</text>
</g>
<!-- r1&#45;&gt;C_OrderListPageComponent -->
<g id="edge5" class="edge">
<title>r1&#45;&gt;C_OrderListPageComponent</title>
<path fill="none" stroke="#1a7f37" stroke-width="1.4" d="M208.44,-72C223.22,-72 242.3,-72 260.63,-72"/>
<polygon fill="#1a7f37" stroke="#1a7f37" stroke-width="1.4" points="260.42,-74.45 267.42,-72 260.42,-69.55 260.42,-74.45"/>
</g>
<!-- C_SettingsPageComponent -->
<g id="node10" class="node">
<title>C_SettingsPageComponent</title>
<path fill="#d6f5dd" stroke="#1a7f37" d="M362.84,-36C362.84,-36 284.59,-36 284.59,-36 278.59,-36 272.59,-30 272.59,-24 272.59,-24 272.59,-12 272.59,-12 272.59,-6 278.59,0 284.59,0 284.59,0 362.84,0 362.84,0 368.84,0 374.84,-6 374.84,-12 374.84,-12 374.84,-24 374.84,-24 374.84,-30 368.84,-36 362.84,-36"/>
<text xml:space="preserve" text-anchor="middle" x="323.71" y="-13.55" font-family="Helvetica,sans-Serif" font-size="11.00">app&#45;settings&#45;page</text>
</g>
<!-- r2&#45;&gt;C_SettingsPageComponent -->
<g id="edge6" class="edge">
<title>r2&#45;&gt;C_SettingsPageComponent</title>
<path fill="none" stroke="#1a7f37" stroke-width="1.4" d="M209.1,-18C224.55,-18 244.53,-18 263.42,-18"/>
<polygon fill="#1a7f37" stroke="#1a7f37" stroke-width="1.4" points="263.18,-20.45 270.18,-18 263.18,-15.55 263.18,-20.45"/>
</g>
<!-- C_StatCardComponent -->
<g id="node6" class="node">
<title>C_StatCardComponent</title>
<path fill="#f4f4f4" stroke="#666666" d="M495.84,-158C495.84,-158 440.09,-158 440.09,-158 434.09,-158 428.09,-152 428.09,-146 428.09,-146 428.09,-134 428.09,-134 428.09,-128 434.09,-122 440.09,-122 440.09,-122 495.84,-122 495.84,-122 501.84,-122 507.84,-128 507.84,-134 507.84,-134 507.84,-146 507.84,-146 507.84,-152 501.84,-158 495.84,-158"/>
<text xml:space="preserve" text-anchor="middle" x="467.96" y="-135.55" font-family="Helvetica,sans-Serif" font-size="11.00">app&#45;stat&#45;card</text>
</g>
<!-- C_DashboardPageComponent&#45;&gt;C_StatCardComponent -->
<g id="edge7" class="edge">
<title>C_DashboardPageComponent&#45;&gt;C_StatCardComponent</title>
<path fill="none" stroke="#555555" d="M382.16,-131.65C394.45,-132.86 407.3,-134.13 419.17,-135.3"/>
<polygon fill="#555555" stroke="#555555" points="418.91,-137.73 426.12,-135.98 419.39,-132.86 418.91,-137.73"/>
</g>
<!-- C_EmptyStateComponent -->
<g id="node7" class="node">
<title>C_EmptyStateComponent</title>
<path fill="#f4f4f4" stroke="#666666" d="M502.96,-104C502.96,-104 432.96,-104 432.96,-104 426.96,-104 420.96,-98 420.96,-92 420.96,-92 420.96,-80 420.96,-80 420.96,-74 426.96,-68 432.96,-68 432.96,-68 502.96,-68 502.96,-68 508.96,-68 514.96,-74 514.96,-80 514.96,-80 514.96,-92 514.96,-92 514.96,-98 508.96,-104 502.96,-104"/>
<text xml:space="preserve" text-anchor="middle" x="467.96" y="-81.55" font-family="Helvetica,sans-Serif" font-size="11.00">app&#45;empty&#45;state</text>
</g>
<!-- C_DashboardPageComponent&#45;&gt;C_EmptyStateComponent -->
<g id="edge8" class="edge">
<title>C_DashboardPageComponent&#45;&gt;C_EmptyStateComponent</title>
<path fill="none" stroke="#555555" d="M382.16,-109.85C392.26,-107.01 402.74,-104.06 412.75,-101.24"/>
<polygon fill="#555555" stroke="#555555" points="413.13,-103.68 419.2,-99.43 411.8,-98.97 413.13,-103.68"/>
</g>
<!-- C_OrderListPageComponent&#45;&gt;C_EmptyStateComponent -->
<g id="edge10" class="edge">
<title>C_OrderListPageComponent&#45;&gt;C_EmptyStateComponent</title>
<path fill="none" stroke="#555555" d="M377.68,-77.21C388.99,-78.33 400.97,-79.5 412.34,-80.62"/>
<polygon fill="#555555" stroke="#555555" points="411.79,-83.03 418.99,-81.28 412.27,-78.16 411.79,-83.03"/>
</g>
<!-- C_StatusBadgeComponent -->
<g id="node9" class="node">
<title>C_StatusBadgeComponent</title>
<path fill="#f4f4f4" stroke="#666666" d="M505.96,-50C505.96,-50 429.96,-50 429.96,-50 423.96,-50 417.96,-44 417.96,-38 417.96,-38 417.96,-26 417.96,-26 417.96,-20 423.96,-14 429.96,-14 429.96,-14 505.96,-14 505.96,-14 511.96,-14 517.96,-20 517.96,-26 517.96,-26 517.96,-38 517.96,-38 517.96,-44 511.96,-50 505.96,-50"/>
<text xml:space="preserve" text-anchor="middle" x="467.96" y="-27.55" font-family="Helvetica,sans-Serif" font-size="11.00">app&#45;status&#45;badge</text>
</g>
<!-- C_OrderListPageComponent&#45;&gt;C_StatusBadgeComponent -->
<g id="edge9" class="edge">
<title>C_OrderListPageComponent&#45;&gt;C_StatusBadgeComponent</title>
<path fill="none" stroke="#555555" d="M377.68,-57.11C388.13,-54.17 399.14,-51.07 409.72,-48.1"/>
<polygon fill="#555555" stroke="#555555" points="410.18,-50.51 416.26,-46.26 408.86,-45.79 410.18,-50.51"/>
</g>
<!-- Lr -->
<g id="node11" class="node">
<title>Lr</title>
<ellipse fill="#ffe08a" stroke="#b8860b" cx="53.52" cy="-225" rx="33.52" ry="33.52"/>
<ellipse fill="none" stroke="#b8860b" cx="53.52" cy="-225" rx="37.52" ry="37.52"/>
<text xml:space="preserve" text-anchor="middle" x="53.52" y="-220.55" font-family="Helvetica,sans-Serif" font-size="11.00">app root</text>
</g>
<!-- Lsh -->
<g id="node12" class="node">
<title>Lsh</title>
<path fill="#cfe8ff" stroke="#1d4ed8" d="M217.46,-243C217.46,-243 144.46,-243 144.46,-243 138.46,-243 132.46,-237 132.46,-231 132.46,-231 132.46,-219 132.46,-219 132.46,-213 138.46,-207 144.46,-207 144.46,-207 217.46,-207 217.46,-207 223.46,-207 229.46,-213 229.46,-219 229.46,-219 229.46,-231 229.46,-231 229.46,-237 223.46,-243 217.46,-243"/>
<text xml:space="preserve" text-anchor="middle" x="180.96" y="-220.55" font-family="Helvetica,sans-Serif" font-size="11.00">layout shell route</text>
</g>
<!-- Lr&#45;&gt;Lsh -->
<!-- Lrt -->
<g id="node13" class="node">
<title>Lrt</title>
<polygon fill="#fff7e6" stroke="#d39e00" points="350.09,-243 291.34,-243 291.34,-207 356.09,-207 356.09,-237 350.09,-243"/>
<polyline fill="none" stroke="#d39e00" points="350.09,-243 350.09,-237"/>
<polyline fill="none" stroke="#d39e00" points="356.09,-237 350.09,-237"/>
<text xml:space="preserve" text-anchor="middle" x="323.71" y="-220.55" font-family="Helvetica,sans-Serif" font-size="11.00">route path</text>
</g>
<!-- Lsh&#45;&gt;Lrt -->
<!-- Lpg -->
<g id="node14" class="node">
<title>Lpg</title>
<path fill="#d6f5dd" stroke="#1a7f37" d="M504.09,-243C504.09,-243 431.84,-243 431.84,-243 425.84,-243 419.84,-237 419.84,-231 419.84,-231 419.84,-219 419.84,-219 419.84,-213 425.84,-207 431.84,-207 431.84,-207 504.09,-207 504.09,-207 510.09,-207 516.09,-213 516.09,-219 516.09,-219 516.09,-231 516.09,-231 516.09,-237 510.09,-243 504.09,-243"/>
<text xml:space="preserve" text-anchor="middle" x="467.96" y="-220.55" font-family="Helvetica,sans-Serif" font-size="11.00">page component</text>
</g>
<!-- Lrt&#45;&gt;Lpg -->
<!-- Lch -->
<g id="node15" class="node">
<title>Lch</title>
<path fill="#f4f4f4" stroke="#666666" d="M635.96,-243C635.96,-243 565.96,-243 565.96,-243 559.96,-243 553.96,-237 553.96,-231 553.96,-231 553.96,-219 553.96,-219 553.96,-213 559.96,-207 565.96,-207 565.96,-207 635.96,-207 635.96,-207 641.96,-207 647.96,-213 647.96,-219 647.96,-219 647.96,-231 647.96,-231 647.96,-237 641.96,-243 635.96,-243"/>
<text xml:space="preserve" text-anchor="middle" x="600.96" y="-220.55" font-family="Helvetica,sans-Serif" font-size="11.00">child component</text>
</g>
<!-- Lpg&#45;&gt;Lch -->
<!-- Ldu -->
<g id="node16" class="node">
<title>Ldu</title>
<path fill="#ffd6a5" stroke="#d39e00" d="M829.71,-243C829.71,-243 695.96,-243 695.96,-243 689.96,-243 683.96,-237 683.96,-231 683.96,-231 683.96,-219 683.96,-219 683.96,-213 689.96,-207 695.96,-207 695.96,-207 829.71,-207 829.71,-207 835.71,-207 841.71,-213 841.71,-219 841.71,-219 841.71,-231 841.71,-231 841.71,-237 835.71,-243 829.71,-243"/>
<text xml:space="preserve" text-anchor="middle" x="762.84" y="-222.43" font-family="Helvetica,sans-Serif" font-size="11.00">★ route+child (page&#45;in&#45;page)</text>
</g>
<!-- Lch&#45;&gt;Ldu -->
<!-- Lor -->
<g id="node17" class="node">
<title>Lor</title>
<polygon fill="#ffd6d6" stroke="#d62828" stroke-width="2" points="1042.96,-243 877.71,-243 877.71,-207 1048.96,-207 1048.96,-237 1042.96,-243"/>
<polyline fill="none" stroke="#d62828" stroke-width="2" points="1042.96,-243 1042.96,-237"/>
<polyline fill="none" stroke="#d62828" stroke-width="2" points="1048.96,-237 1042.96,-237"/>
<text xml:space="preserve" text-anchor="middle" x="963.34" y="-221.3" font-family="Helvetica,sans-Serif" font-size="11.00">✗ orphan route (no inbound nav)</text>
</g>
<!-- Ldu&#45;&gt;Lor -->
</g>
</svg>
