<?xml version="1.0" encoding="UTF-8" standalone="no"?>
<!DOCTYPE svg PUBLIC "-//W3C//DTD SVG 1.1//EN"
 "http://www.w3.org/Graphics/SVG/1.1/DTD/svg11.dtd">
<!-- Generated by graphviz version 15.0.0 (20260523.1842)
 -->
<!-- Title: components Pages: 1 -->
<svg width="893pt" height="412pt"
 viewBox="0.00 0.00 893.00 412.00" xmlns="http://www.w3.org/2000/svg" xmlns:xlink="http://www.w3.org/1999/xlink">
<g id="graph0" class="graph" transform="scale(1 1) rotate(0) translate(4 407.5)">
<title>components</title>
<polygon fill="white" stroke="none" points="-4,4 -4,-407.5 889.25,-407.5 889.25,4 -4,4"/>
<text xml:space="preserve" text-anchor="middle" x="442.62" y="-382.4" font-family="Helvetica,sans-Serif" font-size="18.00">demo&#45;app — component composition</text>
<g id="clust1" class="cluster">
<title>cluster_legend</title>
<polygon fill="none" stroke="#bbbbbb" stroke-dasharray="5,2" points="737.25,-8 737.25,-368.75 877.25,-368.75 877.25,-8 737.25,-8"/>
<text xml:space="preserve" text-anchor="middle" x="807.25" y="-353.35" font-family="Helvetica,sans-Serif" font-size="12.00">legend</text>
</g>
<!-- AppComponent -->
<g id="node1" class="node">
<title>AppComponent</title>
<path fill="#d6e4ff" stroke="#1d4ed8" d="M44.5,-340C44.5,-340 12,-340 12,-340 6,-340 0,-334 0,-328 0,-328 0,-316 0,-316 0,-310 6,-304 12,-304 12,-304 44.5,-304 44.5,-304 50.5,-304 56.5,-310 56.5,-316 56.5,-316 56.5,-328 56.5,-328 56.5,-334 50.5,-340 44.5,-340"/>
<text xml:space="preserve" text-anchor="middle" x="28.25" y="-317.55" font-family="Helvetica,sans-Serif" font-size="11.00">app&#45;root</text>
</g>
<!-- ConfirmDialogComponent -->
<g id="node2" class="node">
<title>ConfirmDialogComponent</title>
<path fill="#e7d6ff" stroke="#7b2ff7" d="M167.88,-340C167.88,-340 86.62,-340 86.62,-340 80.62,-340 74.62,-334 74.62,-328 74.62,-328 74.62,-316 74.62,-316 74.62,-310 80.62,-304 86.62,-304 86.62,-304 167.88,-304 167.88,-304 173.88,-304 179.88,-310 179.88,-316 179.88,-316 179.88,-328 179.88,-328 179.88,-334 173.88,-340 167.88,-340"/>
<text xml:space="preserve" text-anchor="middle" x="127.25" y="-317.55" font-family="Helvetica,sans-Serif" font-size="11.00">app&#45;confirm&#45;dialog</text>
</g>
<!-- EmptyStateComponent -->
<g id="node3" class="node">
<title>EmptyStateComponent</title>
<path fill="#f4f4f4" stroke="#666666" d="M373.25,-268C373.25,-268 303.25,-268 303.25,-268 297.25,-268 291.25,-262 291.25,-256 291.25,-256 291.25,-244 291.25,-244 291.25,-238 297.25,-232 303.25,-232 303.25,-232 373.25,-232 373.25,-232 379.25,-232 385.25,-238 385.25,-244 385.25,-244 385.25,-256 385.25,-256 385.25,-262 379.25,-268 373.25,-268"/>
<text xml:space="preserve" text-anchor="middle" x="338.25" y="-245.55" font-family="Helvetica,sans-Serif" font-size="11.00">app&#45;empty&#45;state</text>
</g>
<!-- LegacyBannerComponent -->
<g id="node4" class="node">
<title>LegacyBannerComponent</title>
<path fill="#ffd6d6" stroke="#d62828" d="M597.25,-340C597.25,-340 515.25,-340 515.25,-340 509.25,-340 503.25,-334 503.25,-328 503.25,-328 503.25,-316 503.25,-316 503.25,-310 509.25,-304 515.25,-304 515.25,-304 597.25,-304 597.25,-304 603.25,-304 609.25,-310 609.25,-316 609.25,-316 609.25,-328 609.25,-328 609.25,-334 603.25,-340 597.25,-340"/>
<text xml:space="preserve" text-anchor="middle" x="556.25" y="-317.55" font-family="Helvetica,sans-Serif" font-size="11.00">app&#45;legacy&#45;banner</text>
</g>
<!-- StatCardComponent -->
<g id="node5" class="node">
<title>StatCardComponent</title>
<path fill="#f4f4f4" stroke="#666666" d="M261.12,-268C261.12,-268 205.38,-268 205.38,-268 199.38,-268 193.38,-262 193.38,-256 193.38,-256 193.38,-244 193.38,-244 193.38,-238 199.38,-232 205.38,-232 205.38,-232 261.12,-232 261.12,-232 267.12,-232 273.12,-238 273.12,-244 273.12,-244 273.12,-256 273.12,-256 273.12,-262 267.12,-268 261.12,-268"/>
<text xml:space="preserve" text-anchor="middle" x="233.25" y="-245.55" font-family="Helvetica,sans-Serif" font-size="11.00">app&#45;stat&#45;card</text>
</g>
<!-- StatusBadgeComponent -->
<g id="node6" class="node">
<title>StatusBadgeComponent</title>
<path fill="#f4f4f4" stroke="#666666" d="M491.25,-268C491.25,-268 415.25,-268 415.25,-268 409.25,-268 403.25,-262 403.25,-256 403.25,-256 403.25,-244 403.25,-244 403.25,-238 409.25,-232 415.25,-232 415.25,-232 491.25,-232 491.25,-232 497.25,-232 503.25,-238 503.25,-244 503.25,-244 503.25,-256 503.25,-256 503.25,-262 497.25,-268 491.25,-268"/>
<text xml:space="preserve" text-anchor="middle" x="453.25" y="-245.55" font-family="Helvetica,sans-Serif" font-size="11.00">app&#45;status&#45;badge</text>
</g>
<!-- DashboardPageComponent -->
<g id="node7" class="node">
<title>DashboardPageComponent</title>
<path fill="#d6f5dd" stroke="#1a7f37" d="M302.5,-340C302.5,-340 210,-340 210,-340 204,-340 198,-334 198,-328 198,-328 198,-316 198,-316 198,-310 204,-304 210,-304 210,-304 302.5,-304 302.5,-304 308.5,-304 314.5,-310 314.5,-316 314.5,-316 314.5,-328 314.5,-328 314.5,-334 308.5,-340 302.5,-340"/>
<text xml:space="preserve" text-anchor="middle" x="256.25" y="-317.55" font-family="Helvetica,sans-Serif" font-size="11.00">app&#45;dashboard&#45;page</text>
</g>
<!-- DashboardPageComponent&#45;&gt;EmptyStateComponent -->
<g id="edge2" class="edge">
<title>DashboardPageComponent&#45;&gt;EmptyStateComponent</title>
<path fill="none" stroke="#888888" d="M276.52,-303.7C287.07,-294.69 300.09,-283.57 311.46,-273.87"/>
<polygon fill="#888888" stroke="#888888" points="313.04,-275.74 316.78,-269.33 309.86,-272.01 313.04,-275.74"/>
</g>
<!-- DashboardPageComponent&#45;&gt;StatCardComponent -->
<g id="edge1" class="edge">
<title>DashboardPageComponent&#45;&gt;StatCardComponent</title>
<path fill="none" stroke="#888888" d="M250.56,-303.7C247.84,-295.39 244.51,-285.28 241.51,-276.14"/>
<polygon fill="#888888" stroke="#888888" points="243.86,-275.43 239.34,-269.54 239.2,-276.96 243.86,-275.43"/>
</g>
<!-- OrderListPageComponent -->
<g id="node8" class="node">
<title>OrderListPageComponent</title>
<path fill="#d6f5dd" stroke="#1a7f37" d="M473,-340C473,-340 389.5,-340 389.5,-340 383.5,-340 377.5,-334 377.5,-328 377.5,-328 377.5,-316 377.5,-316 377.5,-310 383.5,-304 389.5,-304 389.5,-304 473,-304 473,-304 479,-304 485,-310 485,-316 485,-316 485,-328 485,-328 485,-334 479,-340 473,-340"/>
<text xml:space="preserve" text-anchor="middle" x="431.25" y="-317.55" font-family="Helvetica,sans-Serif" font-size="11.00">app&#45;order&#45;list&#45;page</text>
</g>
<!-- OrderListPageComponent&#45;&gt;EmptyStateComponent -->
<g id="edge4" class="edge">
<title>OrderListPageComponent&#45;&gt;EmptyStateComponent</title>
<path fill="none" stroke="#888888" d="M408.26,-303.7C396.08,-294.53 380.97,-283.16 367.91,-273.33"/>
<polygon fill="#888888" stroke="#888888" points="369.57,-271.51 362.51,-269.26 366.63,-275.42 369.57,-271.51"/>
</g>
<!-- OrderListPageComponent&#45;&gt;StatusBadgeComponent -->
<g id="edge3" class="edge">
<title>OrderListPageComponent&#45;&gt;StatusBadgeComponent</title>
<path fill="none" stroke="#888888" d="M436.69,-303.7C439.3,-295.39 442.48,-285.28 445.35,-276.14"/>
<polygon fill="#888888" stroke="#888888" points="447.66,-276.96 447.42,-269.55 442.98,-275.49 447.66,-276.96"/>
</g>
<!-- SettingsPageComponent -->
<g id="node9" class="node">
<title>SettingsPageComponent</title>
<path fill="#d6e4ff" stroke="#1d4ed8" d="M717.38,-340C717.38,-340 639.12,-340 639.12,-340 633.12,-340 627.12,-334 627.12,-328 627.12,-328 627.12,-316 627.12,-316 627.12,-310 633.12,-304 639.12,-304 639.12,-304 717.38,-304 717.38,-304 723.38,-304 729.38,-310 729.38,-316 729.38,-316 729.38,-328 729.38,-328 729.38,-334 723.38,-340 717.38,-340"/>
<text xml:space="preserve" text-anchor="middle" x="678.25" y="-317.55" font-family="Helvetica,sans-Serif" font-size="11.00">app&#45;settings&#45;page</text>
</g>
<!-- L_page -->
<g id="node10" class="node">
<title>L_page</title>
<path fill="#d6f5dd" stroke="#1a7f37" d="M846.75,-340C846.75,-340 767.75,-340 767.75,-340 761.75,-340 755.75,-334 755.75,-328 755.75,-328 755.75,-316 755.75,-316 755.75,-310 761.75,-304 767.75,-304 767.75,-304 846.75,-304 846.75,-304 852.75,-304 858.75,-310 858.75,-316 858.75,-316 858.75,-328 858.75,-328 858.75,-334 852.75,-340 846.75,-340"/>
<text xml:space="preserve" text-anchor="middle" x="807.25" y="-317.55" font-family="Helvetica,sans-Serif" font-size="11.00">page with children</text>
</g>
<!-- L_child -->
<g id="node11" class="node">
<title>L_child</title>
<path fill="#f4f4f4" stroke="#666666" d="M840.38,-268C840.38,-268 774.12,-268 774.12,-268 768.12,-268 762.12,-262 762.12,-256 762.12,-256 762.12,-244 762.12,-244 762.12,-238 768.12,-232 774.12,-232 774.12,-232 840.38,-232 840.38,-232 846.38,-232 852.38,-238 852.38,-244 852.38,-244 852.38,-256 852.38,-256 852.38,-262 846.38,-268 840.38,-268"/>
<text xml:space="preserve" text-anchor="middle" x="807.25" y="-245.55" font-family="Helvetica,sans-Serif" font-size="11.00">composed child</text>
</g>
<!-- L_page&#45;&gt;L_child -->
<!-- L_route -->
<g id="node12" class="node">
<title>L_route</title>
<path fill="#d6e4ff" stroke="#1d4ed8" d="M856.88,-196C856.88,-196 757.62,-196 757.62,-196 751.62,-196 745.62,-190 745.62,-184 745.62,-184 745.62,-172 745.62,-172 745.62,-166 751.62,-160 757.62,-160 757.62,-160 856.88,-160 856.88,-160 862.88,-160 868.88,-166 868.88,-172 868.88,-172 868.88,-184 868.88,-184 868.88,-190 862.88,-196 856.88,-196"/>
<text xml:space="preserve" text-anchor="middle" x="807.25" y="-173.55" font-family="Helvetica,sans-Serif" font-size="11.00">isolated page/root (ok)</text>
</g>
<!-- L_child&#45;&gt;L_route -->
<!-- L_dialog -->
<g id="node13" class="node">
<title>L_dialog</title>
<path fill="#e7d6ff" stroke="#7b2ff7" d="M841.88,-124C841.88,-124 772.62,-124 772.62,-124 766.62,-124 760.62,-118 760.62,-112 760.62,-112 760.62,-100 760.62,-100 760.62,-94 766.62,-88 772.62,-88 772.62,-88 841.88,-88 841.88,-88 847.88,-88 853.88,-94 853.88,-100 853.88,-100 853.88,-112 853.88,-112 853.88,-118 847.88,-124 841.88,-124"/>
<text xml:space="preserve" text-anchor="middle" x="807.25" y="-101.55" font-family="Helvetica,sans-Serif" font-size="11.00">dialog.open (ok)</text>
</g>
<!-- L_route&#45;&gt;L_dialog -->
<!-- L_suspect -->
<g id="node14" class="node">
<title>L_suspect</title>
<path fill="#ffd6d6" stroke="#d62828" d="M839.62,-52C839.62,-52 774.88,-52 774.88,-52 768.88,-52 762.88,-46 762.88,-40 762.88,-40 762.88,-28 762.88,-28 762.88,-22 768.88,-16 774.88,-16 774.88,-16 839.62,-16 839.62,-16 845.62,-16 851.62,-22 851.62,-28 851.62,-28 851.62,-40 851.62,-40 851.62,-46 845.62,-52 839.62,-52"/>
<text xml:space="preserve" text-anchor="middle" x="807.25" y="-29.55" font-family="Helvetica,sans-Serif" font-size="11.00">suspect (verify)</text>
</g>
<!-- L_dialog&#45;&gt;L_suspect -->
</g>
</svg>
